HIERARCHY
ROOT Joint0
{
  OFFSET 0.0000 0.0000 1.0000
  CHANNELS 6 Xposition Yposition Zposition Zrotation Xrotation Yrotation
  JOINT Joint1
  {
    OFFSET 0.0811 -0.0899 -0.0114
    CHANNELS 3 Zrotation Xrotation Yrotation
    JOINT Joint4
    {
      OFFSET 0.0297 -0.3677 -0.0039
      CHANNELS 3 Zrotation Xrotation Yrotation
      JOINT Joint7
      {
        OFFSET -0.0120 -0.3841 -0.0490
        CHANNELS 3 Zrotation Xrotation Yrotation
        JOINT Joint10
        {
          OFFSET 0.0247 -0.0555 0.1226
          CHANNELS 3 Zrotation Xrotation Yrotation
          End Site
          {
            OFFSET 0.0247 -0.0555 0.1226
          }
        }
      }
    }
  }
  JOINT Joint2
  {
    OFFSET -0.0773 -0.0878 -0.0084
    CHANNELS 3 Zrotation Xrotation Yrotation
    JOINT Joint5
    {
      OFFSET -0.0344 -0.3716 -0.0062
      CHANNELS 3 Zrotation Xrotation Yrotation
      JOINT Joint8
      {
        OFFSET 0.0139 -0.3835 -0.0484
        CHANNELS 3 Zrotation Xrotation Yrotation
        JOINT Joint11
        {
          OFFSET -0.0293 -0.0469 0.1263
          CHANNELS 3 Zrotation Xrotation Yrotation
          End Site
          {
            OFFSET -0.0293 -0.0469 0.1263
          }
        }
      }
    }
  }
  JOINT Joint3
  {
    OFFSET -0.0027 0.1037 -0.0232
    CHANNELS 3 Zrotation Xrotation Yrotation
    JOINT Joint6
    {
      OFFSET 0.0030 0.1296 -0.0027
      CHANNELS 3 Zrotation Xrotation Yrotation
      JOINT Joint9
      {
        OFFSET 0.0015 0.0533 0.0332
        CHANNELS 3 Zrotation Xrotation Yrotation
        JOINT Joint12
        {
          OFFSET -0.0004 0.2283 -0.0600
          CHANNELS 3 Zrotation Xrotation Yrotation
          JOINT Joint15
          {
            OFFSET 0.0048 0.0641 0.0558
            CHANNELS 3 Zrotation Xrotation Yrotation
            End Site
            {
              OFFSET 0.0048 0.0641 0.0558
            }
          }
        }
        JOINT Joint13
        {
          OFFSET 0.0787 0.1275 -0.0430
          CHANNELS 3 Zrotation Xrotation Yrotation
          JOINT Joint16
          {
            OFFSET 0.0914 0.0355 -0.0086
            CHANNELS 3 Zrotation Xrotation Yrotation
            JOINT Joint18
            {
              OFFSET 0.2512 -0.0141 -0.0294
              CHANNELS 3 Zrotation Xrotation Yrotation
              JOINT Joint20
              {
                OFFSET 0.2431 0.0092 0.0027
                CHANNELS 3 Zrotation Xrotation Yrotation
                JOINT Joint22
                {
                  OFFSET 0.1053 -0.0108 0.0234
                  CHANNELS 3 Zrotation Xrotation Yrotation
                  JOINT Joint23
                  {
                    OFFSET 0.0332 0.0042 0.0030
                    CHANNELS 3 Zrotation Xrotation Yrotation
                    JOINT Joint24
                    {
                      OFFSET 0.0234 -0.0009 0.0005
                      CHANNELS 3 Zrotation Xrotation Yrotation
                      End Site
                      {
                        OFFSET 0.0234 -0.0009 0.0005
                      }
                    }
                  }
                }
                JOINT Joint25
                {
                  OFFSET 0.1126 -0.0078 -0.0002
                  CHANNELS 3 Zrotation Xrotation Yrotation
                  JOINT Joint26
                  {
                    OFFSET 0.0317 0.0021 -0.0047
                    CHANNELS 3 Zrotation Xrotation Yrotation
                    JOINT Joint27
                    {
                      OFFSET 0.0246 -0.0008 -0.0039
                      CHANNELS 3 Zrotation Xrotation Yrotation
                      End Site
                      {
                        OFFSET 0.0246 -0.0008 -0.0039
                      }
                    }
                  }
                }
                JOINT Joint28
                {
                  OFFSET 0.0860 -0.0168 -0.0403
                  CHANNELS 3 Zrotation Xrotation Yrotation
                  JOINT Joint29
                  {
                    OFFSET 0.0158 -0.0006 -0.0114
                    CHANNELS 3 Zrotation Xrotation Yrotation
                    JOINT Joint30
                    {
                      OFFSET 0.0161 -0.0011 -0.0109
                      CHANNELS 3 Zrotation Xrotation Yrotation
                      End Site
                      {
                        OFFSET 0.0161 -0.0011 -0.0109
                      }
                    }
                  }
                }
                JOINT Joint31
                {
                  OFFSET 0.0999 -0.0111 -0.0238
                  CHANNELS 3 Zrotation Xrotation Yrotation
                  JOINT Joint32
                  {
                    OFFSET 0.0286 0.0023 -0.0053
                    CHANNELS 3 Zrotation Xrotation Yrotation
                    JOINT Joint33
                    {
                      OFFSET 0.0234 -0.0009 -0.0074
                      CHANNELS 3 Zrotation Xrotation Yrotation
                      End Site
                      {
                        OFFSET 0.0234 -0.0009 -0.0074
                      }
                    }
                  }
                }
                JOINT Joint34
                {
                  OFFSET 0.0426 -0.0219 0.0277
                  CHANNELS 3 Zrotation Xrotation Yrotation
                  JOINT Joint35
                  {
                    OFFSET 0.0185 0.0008 0.0246
                    CHANNELS 3 Zrotation Xrotation Yrotation
                    JOINT Joint36
                    {
                      OFFSET 0.0221 -0.0048 0.0152
                      CHANNELS 3 Zrotation Xrotation Yrotation
                      End Site
                      {
                        OFFSET 0.0221 -0.0048 0.0152
                      }
                    }
                  }
                }
              }
            }
          }
        }
        JOINT Joint14
        {
          OFFSET -0.0815 0.1251 -0.0492
          CHANNELS 3 Zrotation Xrotation Yrotation
          JOINT Joint17
          {
            OFFSET -0.0975 0.0385 -0.0099
            CHANNELS 3 Zrotation Xrotation Yrotation
            JOINT Joint19
            {
              OFFSET -0.2546 -0.0159 -0.0229
              CHANNELS 3 Zrotation Xrotation Yrotation
              JOINT Joint21
              {
                OFFSET -0.2519 0.0079 0.0007
                CHANNELS 3 Zrotation Xrotation Yrotation
                JOINT Joint37
                {
                  OFFSET -0.1043 -0.0103 0.0246
                  CHANNELS 3 Zrotation Xrotation Yrotation
                  JOINT Joint38
                  {
                    OFFSET -0.0341 0.0034 0.0025
                    CHANNELS 3 Zrotation Xrotation Yrotation
                    JOINT Joint39
                    {
                      OFFSET -0.0236 -0.0015 -0.0003
                      CHANNELS 3 Zrotation Xrotation Yrotation
                      End Site
                      {
                        OFFSET -0.0236 -0.0015 -0.0003
                      }
                    }
                  }
                }
                JOINT Joint40
                {
                  OFFSET -0.1123 -0.0074 -0.0003
                  CHANNELS 3 Zrotation Xrotation Yrotation
                  JOINT Joint41
                  {
                    OFFSET -0.0322 0.0016 -0.0048
                    CHANNELS 3 Zrotation Xrotation Yrotation
                    JOINT Joint42
                    {
                      OFFSET -0.0245 -0.0012 -0.0045
                      CHANNELS 3 Zrotation Xrotation Yrotation
                      End Site
                      {
                        OFFSET -0.0245 -0.0012 -0.0045
                      }
                    }
                  }
                }
                JOINT Joint43
                {
                  OFFSET -0.0863 -0.0161 -0.0419
                  CHANNELS 3 Zrotation Xrotation Yrotation
                  JOINT Joint44
                  {
                    OFFSET -0.0162 -0.0001 -0.0120
                    CHANNELS 3 Zrotation Xrotation Yrotation
                    JOINT Joint45
                    {
                      OFFSET -0.0165 -0.0007 -0.0110
                      CHANNELS 3 Zrotation Xrotation Yrotation
                      End Site
                      {
                        OFFSET -0.0165 -0.0007 -0.0110
                      }
                    }
                  }
                }
                JOINT Joint46
                {
                  OFFSET -0.0999 -0.0107 -0.0248
                  CHANNELS 3 Zrotation Xrotation Yrotation
                  JOINT Joint47
                  {
                    OFFSET -0.0290 0.0016 -0.0050
                    CHANNELS 3 Zrotation Xrotation Yrotation
                    JOINT Joint48
                    {
                      OFFSET -0.0236 -0.0012 -0.0076
                      CHANNELS 3 Zrotation Xrotation Yrotation
                      End Site
                      {
                        OFFSET -0.0236 -0.0012 -0.0076
                      }
                    }
                  }
                }
                JOINT Joint49
                {
                  OFFSET -0.0397 -0.0214 0.0306
                  CHANNELS 3 Zrotation Xrotation Yrotation
                  JOINT Joint50
                  {
                    OFFSET -0.0191 0.0007 0.0247
                    CHANNELS 3 Zrotation Xrotation Yrotation
                    JOINT Joint51
                    {
                      OFFSET -0.0231 -0.0056 0.0141
                      CHANNELS 3 Zrotation Xrotation Yrotation
                      End Site
                      {
                        OFFSET -0.0231 -0.0056 0.0141
                      }
                    }
                  }
                }
              }
            }
          }
        }
      }
    }
  }
}
MOTION
Frames: 7
Frame Time: 0.0333
0.0000 0.0000 0.0000 -1.4124 78.1475 150.0253 10.4818 -12.6569 -2.0350 -4.8222 -3.5092 -20.9870 -2.6188 -8.7801 1.9573 0.0000 0.0000 0.0000 3.6311 -12.4783 -2.2223 3.4646 7.4227 4.9067 4.4770 -9.6940 -3.2252 0.0000 0.0000 0.0000 -6.4867 18.9433 7.3929 -9.0385 6.4101 5.4789 -3.4812 -0.2500 4.3577 -6.5355 5.1864 -14.9021 5.2502 2.3384 -16.5161 -27.3259 -3.1864 -7.3741 -40.8981 14.8537 -2.5309 12.4683 0.0120 -38.2669 4.0221 2.1034 -4.2260 -24.0738 5.7061 3.7140 -43.3124 7.0195 -1.1858 -11.0629 -4.9918 -5.7123 -30.3189 -7.2093 1.0370 -40.4542 -8.6380 0.1210 -19.3843 -0.1920 -5.3744 -40.1428 -20.5934 -19.4386 -29.8046 -10.8081 -6.7641 -5.4446 -21.0010 -4.5092 -36.8726 -6.0602 -7.1223 -37.6129 -15.1557 -8.6470 -22.1659 -8.4174 -9.3293 -16.0939 46.7949 23.9080 3.7329 -28.5753 2.5054 -18.3193 29.8224 7.6334 11.1770 2.7338 22.0639 11.4104 -0.2436 12.6471 -2.3287 11.9894 39.7828 6.4954 -3.3623 -5.8692 24.0738 5.7061 -3.7140 43.3124 7.0195 1.1858 11.0629 -4.9918 5.7123 30.3189 -7.2093 -1.0370 40.4542 -8.6380 -0.1210 19.3843 -0.1920 5.3744 40.1428 -20.5934 19.4386 29.8046 -10.8081 6.7641 5.4446 -21.0010 4.5092 36.8726 -6.0602 7.1223 37.6129 -15.1557 8.6470 22.1659 -8.4174 9.3293 16.0939 46.7949 -23.9080 -3.7329 -28.5753 -2.5054 18.3193 29.8224 -7.6334
0.0000 0.0000 0.0000 -1.9877 78.0068 150.7682 10.4800 -13.0382 -1.9648 -4.8791 -3.2656 -21.0888 -2.6674 -8.8439 1.8286 0.0000 0.0000 0.0000 3.5970 -12.4969 -2.3127 3.5173 7.0922 4.8779 4.4913 -9.7598 -3.3044 0.0000 0.0000 0.0000 -6.4283 19.1757 7.3326 -9.2598 6.1873 5.4429 -3.5287 -0.1129 4.3250 -6.7340 5.3629 -15.2415 5.3818 2.2366 -15.9282 -27.4671 -3.3009 -7.2620 -40.7182 14.6296 -2.1913 12.0476 -0.9715 -38.2867 4.5585 2.2153 -4.3101 -24.0738 5.7061 3.7140 -43.3124 7.0195 -1.1858 -11.0629 -4.9918 -5.7123 -30.3189 -7.2093 1.0370 -40.4542 -8.6380 0.1210 -19.3843 -0.1920 -5.3744 -40.1428 -20.5934 -19.4386 -29.8046 -10.8081 -6.7641 -5.4446 -21.0010 -4.5092 -36.8726 -6.0602 -7.1223 -37.6129 -15.1557 -8.6470 -22.1659 -8.4174 -9.3293 -16.0939 46.7949 23.9080 3.7329 -28.5753 2.5054 -18.3193 29.8224 7.6334 10.6967 2.4513 21.8127 11.0665 0.6065 11.9331 -2.1113 13.4503 43.5100 8.6719 -5.3351 -4.7948 24.0738 5.7061 -3.7140 43.3124 7.0195 1.1858 11.0629 -4.9918 5.7123 30.3189 -7.2093 -1.0370 40.4542 -8.6380 -0.1210 19.3843 -0.1920 5.3744 40.1428 -20.5934 19.4386 29.8046 -10.8081 6.7641 5.4446 -21.0010 4.5092 36.8726 -6.0602 7.1223 37.6129 -15.1557 8.6470 22.1659 -8.4174 9.3293 16.0939 46.7949 -23.9080 -3.7329 -28.5753 -2.5054 18.3193 29.8224 -7.6334
0.0000 0.0000 0.0000 -2.2616 77.8198 151.3833 10.4936 -13.5063 -1.8805 -4.8912 -2.9454 -21.3205 -2.7086 -8.9305 1.6827 0.0000 0.0000 0.0000 3.6086 -12.5040 -2.4062 3.5822 6.7320 4.9108 4.4819 -9.7946 -3.5105 0.0000 0.0000 0.0000 -6.2899 19.4694 7.1514 -9.4483 5.8440 5.2589 -3.5318 0.0660 4.2506 -6.9157 5.6824 -15.7301 5.5611 2.0409 -15.1200 -27.6285 -3.3991 -7.2490 -40.5222 14.3612 -1.7584 11.5096 -1.8697 -38.0852 4.8969 2.5539 -4.1629 -24.0738 5.7061 3.7140 -43.3124 7.0195 -1.1858 -11.0629 -4.9918 -5.7123 -30.3189 -7.2093 1.0370 -40.4542 -8.6380 0.1210 -19.3843 -0.1920 -5.3744 -40.1428 -20.5934 -19.4386 -29.8046 -10.8081 -6.7641 -5.4446 -21.0010 -4.5092 -36.8726 -6.0602 -7.1223 -37.6129 -15.1557 -8.6470 -22.1659 -8.4174 -9.3293 -16.0939 46.7949 23.9080 3.7329 -28.5753 2.5054 -18.3193 29.8224 7.6334 10.0435 2.0914 21.6084 10.2444 1.2741 11.2357 -2.1588 15.1270 47.5465 11.0366 -6.4343 -3.9733 24.0738 5.7061 -3.7140 43.3124 7.0195 1.1858 11.0629 -4.9918 5.7123 30.3189 -7.2093 -1.0370 40.4542 -8.6380 -0.1210 19.3843 -0.1920 5.3744 40.1428 -20.5934 19.4386 29.8046 -10.8081 6.7641 5.4446 -21.0010 4.5092 36.8726 -6.0602 7.1223 37.6129 -15.1557 8.6470 22.1659 -8.4174 9.3293 16.0939 46.7949 -23.9080 -3.7329 -28.5753 -2.5054 18.3193 29.8224 -7.6334
0.0000 0.0000 0.0000 -2.2037 77.5098 152.0010 10.5143 -14.2112 -1.7700 -4.8127 -2.5334 -21.7460 -2.8084 -8.9801 1.4406 0.0000 0.0000 0.0000 3.6973 -12.5782 -2.5557 3.6445 6.3156 4.9489 4.4188 -9.8214 -3.8503 0.0000 0.0000 0.0000 -5.9940 19.9737 6.8570 -9.5761 5.3731 4.9856 -3.4571 0.2893 4.1650 -7.1251 6.0028 -16.4046 5.6824 1.6112 -14.3101 -27.8272 -3.5046 -7.3982 -40.3446 14.2341 -1.3424 11.0901 -2.3558 -37.6285 4.7541 3.1375 -3.7054 -24.0738 5.7061 3.7140 -43.3124 7.0195 -1.1858 -11.0629 -4.9918 -5.7123 -30.3189 -7.2093 1.0370 -40.4542 -8.6380 0.1210 -19.3843 -0.1920 -5.3744 -40.1428 -20.5934 -19.4386 -29.8046 -10.8081 -6.7641 -5.4446 -21.0010 -4.5092 -36.8726 -6.0602 -7.1223 -37.6129 -15.1557 -8.6470 -22.1659 -8.4174 -9.3293 -16.0939 46.7949 23.9080 3.7329 -28.5753 2.5054 -18.3193 29.8224 7.6334 9.3139 1.6962 21.5632 8.6690 1.3855 10.5742 -1.9499 16.5280 50.4728 13.6229 -6.9490 -3.6083 24.0738 5.7061 -3.7140 43.3124 7.0195 1.1858 11.0629 -4.9918 5.7123 30.3189 -7.2093 -1.0370 40.4542 -8.6380 -0.1210 19.3843 -0.1920 5.3744 40.1428 -20.5934 19.4386 29.8046 -10.8081 6.7641 5.4446 -21.0010 4.5092 36.8726 -6.0602 7.1223 37.6129 -15.1557 8.6470 22.1659 -8.4174 9.3293 16.0939 46.7949 -23.9080 -3.7329 -28.5753 -2.5054 18.3193 29.8224 -7.6334
0.0000 0.0000 0.0000 -2.0297 77.2378 152.4719 10.5082 -14.7849 -1.7255 -4.7076 -2.3093 -22.0791 -2.9420 -8.9045 1.1977 0.0000 0.0000 0.0000 3.7897 -12.7170 -2.7221 3.6577 6.0752 4.8849 4.3291 -9.8610 -4.0708 0.0000 0.0000 0.0000 -5.7071 20.4165 6.6734 -9.5615 5.1047 4.8712 -3.3550 0.4094 4.1569 -7.2935 5.9800 -16.7828 5.5939 1.1747 -14.1936 -27.9535 -3.5504 -7.5868 -40.3007 14.4264 -1.2755 11.2311 -1.9659 -37.4763 4.3021 3.5981 -3.3826 -24.0738 5.7061 3.7140 -43.3124 7.0195 -1.1858 -11.0629 -4.9918 -5.7123 -30.3189 -7.2093 1.0370 -40.4542 -8.6380 0.1210 -19.3843 -0.1920 -5.3744 -40.1428 -20.5934 -19.4386 -29.8046 -10.8081 -6.7641 -5.4446 -21.0010 -4.5092 -36.8726 -6.0602 -7.1223 -37.6129 -15.1557 -8.6470 -22.1659 -8.4174 -9.3293 -16.0939 46.7949 23.9080 3.7329 -28.5753 2.5054 -18.3193 29.8224 7.6334 9.1145 1.6101 21.7107 7.4185 0.8216 10.2562 -1.3510 16.7052 49.7834 14.5808 -6.6084 -3.8971 24.0738 5.7061 -3.7140 43.3124 7.0195 1.1858 11.0629 -4.9918 5.7123 30.3189 -7.2093 -1.0370 40.4542 -8.6380 -0.1210 19.3843 -0.1920 5.3744 40.1428 -20.5934 19.4386 29.8046 -10.8081 6.7641 5.4446 -21.0010 4.5092 36.8726 -6.0602 7.1223 37.6129 -15.1557 8.6470 22.1659 -8.4174 9.3293 16.0939 46.7949 -23.9080 -3.7329 -28.5753 -2.5054 18.3193 29.8224 -7.6334
0.0000 0.0000 0.0000 -2.0846 76.9484 153.2458 10.4453 -15.3559 -1.8177 -4.6245 -2.2372 -22.3774 -3.0761 -8.7450 0.9787 0.0000 0.0000 0.0000 3.8206 -12.9141 -2.9202 3.6685 5.8555 4.7199 4.2370 -9.9170 -4.2768 0.0000 0.0000 0.0000 -5.4504 20.8068 6.5841 -9.4626 5.0196 4.8788 -3.2288 0.4833 4.2142 -7.5258 5.6671 -16.9964 5.3699 0.6812 -14.5112 -28.0518 -3.5384 -7.7793 -40.2890 14.8545 -1.4432 11.8085 -1.0261 -37.8417 3.9172 4.1425 -3.2896 -24.0738 5.7061 3.7140 -43.3124 7.0195 -1.1858 -11.0629 -4.9918 -5.7123 -30.3189 -7.2093 1.0370 -40.4542 -8.6380 0.1210 -19.3843 -0.1920 -5.3744 -40.1428 -20.5934 -19.4386 -29.8046 -10.8081 -6.7641 -5.4446 -21.0010 -4.5092 -36.8726 -6.0602 -7.1223 -37.6129 -15.1557 -8.6470 -22.1659 -8.4174 -9.3293 -16.0939 46.7949 23.9080 3.7329 -28.5753 2.5054 -18.3193 29.8224 7.6334 9.3176 1.7879 21.9873 6.2695 -0.1354 10.0606 -0.4896 16.2802 46.8308 14.2815 -5.2479 -4.6018 24.0738 5.7061 -3.7140 43.3124 7.0195 1.1858 11.0629 -4.9918 5.7123 30.3189 -7.2093 -1.0370 40.4542 -8.6380 -0.1210 19.3843 -0.1920 5.3744 40.1428 -20.5934 19.4386 29.8046 -10.8081 6.7641 5.4446 -21.0010 4.5092 36.8726 -6.0602 7.1223 37.6129 -15.1557 8.6470 22.1659 -8.4174 9.3293 16.0939 46.7949 -23.9080 -3.7329 -28.5753 -2.5054 18.3193 29.8224 -7.6334
0.0000 0.0000 0.0000 -2.4147 76.5921 154.6013 10.2734 -16.0463 -2.1096 -4.5673 -2.3386 -22.7201 -3.3073 -8.3746 0.7080 0.0000 0.0000 0.0000 3.7795 -13.1722 -3.2515 3.6613 5.5441 4.3045 4.0787 -10.0524 -4.4635 0.0000 0.0000 0.0000 -5.1062 21.3063 6.4986 -9.3237 5.0882 5.0466 -3.0666 0.4987 4.4000 -7.8643 5.0929 -17.0542 4.9777 0.0273 -15.3686 -28.2431 -3.3860 -7.9319 -40.2091 15.6378 -1.8678 13.1294 0.4988 -39.4008 4.0969 4.8240 -3.7210 -24.0738 5.7061 3.7140 -43.3124 7.0195 -1.1858 -11.0629 -4.9918 -5.7123 -30.3189 -7.2093 1.0370 -40.4542 -8.6380 0.1210 -19.3843 -0.1920 -5.3744 -40.1428 -20.5934 -19.4386 -29.8046 -10.8081 -6.7641 -5.4446 -21.0010 -4.5092 -36.8726 -6.0602 -7.1223 -37.6129 -15.1557 -8.6470 -22.1659 -8.4174 -9.3293 -16.0939 46.7949 23.9080 3.7329 -28.5753 2.5054 -18.3193 29.8224 7.6334 10.1437 2.4747 22.5274 5.0609 -1.6953 10.0691 0.8925 15.2129 40.5124 11.6733 -2.1114 -5.5860 24.0738 5.7061 -3.7140 43.3124 7.0195 1.1858 11.0629 -4.9918 5.7123 30.3189 -7.2093 -1.0370 40.4542 -8.6380 -0.1210 19.3843 -0.1920 5.3744 40.1428 -20.5934 19.4386 29.8046 -10.8081 6.7641 5.4446 -21.0010 4.5092 36.8726 -6.0602 7.1223 37.6129 -15.1557 8.6470 22.1659 -8.4174 9.3293 16.0939 46.7949 -23.9080 -3.7329 -28.5753 -2.5054 18.3193 29.8224 -7.6334
